<?xml version="1.0" standalone="no"?>
<!DOCTYPE svg PUBLIC "-//W3C//DTD SVG 20010904//EN"
 "http://www.w3.org/TR/2001/REC-SVG-20010904/DTD/svg10.dtd">
<svg version="1.0" xmlns="http://www.w3.org/2000/svg"
 width="360.000000pt" height="360.000000pt" viewBox="0 0 360.000000 360.000000"
 preserveAspectRatio="xMidYMid meet">

<g transform="translate(0.000000,360.000000) scale(0.100000,-0.100000)"
fill="#000000" stroke="none">
<path d="M1668 3590 c-9 -6 -66 -17 -125 -25 -122 -16 -184 -29 -258 -54 -27
-10 -81 -28 -120 -41 -60 -20 -175 -71 -225 -100 -8 -5 -38 -23 -66 -39 -78
-45 -244 -173 -308 -237 -171 -171 -275 -311 -366 -492 -86 -172 -149 -365
-165 -507 -4 -33 -13 -75 -21 -94 -20 -48 -20 -356 0 -397 8 -16 19 -69 25
-119 33 -269 181 -590 387 -835 192 -230 381 -367 704 -514 94 -42 272 -90
380 -101 36 -4 77 -14 92 -21 38 -20 342 -20 389 0 19 7 65 17 103 21 61 6
106 18 276 70 261 81 521 242 710 441 79 83 160 178 160 188 0 4 19 33 43 64
42 56 137 217 137 233 0 4 15 41 33 81 45 98 93 272 107 388 7 52 19 105 26
117 17 27 20 307 4 349 -6 15 -24 96 -40 178 -35 179 -41 200 -96 336 -74 184
-159 324 -295 485 -159 189 -410 374 -650 480 -86 38 -300 101 -374 110 -125
16 -196 29 -201 36 -7 12 -245 11 -266 -1z m90 -196 c29 -8 28 -22 -5 -56 -23
-24 -25 -30 -13 -38 35 -23 132 -4 136 25 2 11 15 30 30 43 21 18 36 22 73 20
62 -4 66 -27 11 -67 -48 -34 -47 -35 63 -45 44 -5 57 -3 57 8 0 7 9 25 21 40
16 21 29 26 63 26 50 0 82 -20 73 -44 -7 -18 -10 -19 -76 -36 -40 -11 -42 -12
-24 -25 10 -7 44 -18 76 -24 32 -6 65 -19 77 -31 11 -11 29 -20 40 -20 21 0
60 -15 158 -63 61 -29 88 -33 57 -7 -23 19 -18 45 11 60 23 13 30 12 72 -10
26 -14 47 -32 47 -40 0 -9 -18 -21 -42 -30 -51 -17 -54 -35 -12 -58 18 -9 59
-43 93 -75 34 -32 73 -65 89 -73 15 -8 27 -18 27 -22 0 -4 11 -20 25 -37 l25
-30 -6 27 c-7 31 16 48 65 48 36 0 83 -45 79 -75 -3 -17 -10 -20 -56 -18 l-54
3 17 -28 c36 -56 56 -71 86 -65 67 13 159 -38 159 -89 0 -28 -27 -33 -77 -15
-40 15 -44 15 -50 1 -3 -9 7 -42 22 -75 27 -55 29 -57 42 -39 17 24 34 25 88
4 44 -16 75 -56 75 -94 0 -20 -4 -22 -35 -17 -19 3 -49 16 -67 28 l-31 23 7
-30 c15 -59 49 -108 81 -114 44 -9 93 -37 105 -59 5 -11 10 -33 10 -50 0 -28
-3 -31 -29 -31 -17 0 -43 11 -61 26 -38 33 -47 26 -31 -26 13 -44 48 -82 102
-110 39 -20 63 -63 57 -102 -4 -31 -40 -35 -74 -9 -38 30 -44 27 -44 -21 0
-38 5 -47 54 -92 60 -57 71 -81 57 -120 -14 -35 -46 -34 -79 4 -15 16 -29 30
-33 30 -4 0 -9 -23 -13 -51 l-7 -50 51 -46 c42 -37 50 -51 50 -80 0 -81 -44
-97 -86 -31 -25 39 -27 41 -40 23 -8 -10 -14 -27 -14 -36 0 -10 -3 -24 -6 -32
-3 -9 7 -27 23 -44 63 -65 77 -127 37 -167 -25 -25 -42 -19 -71 25 -25 38 -27
39 -44 22 -10 -10 -34 -52 -55 -93 -20 -41 -52 -96 -71 -122 -37 -54 -42 -78
-14 -78 27 0 56 -91 40 -123 -19 -36 -41 -57 -60 -57 -23 0 -42 66 -33 115 3
19 2 35 -3 35 -10 0 -172 -165 -227 -233 -21 -26 -43 -47 -48 -47 -5 0 -35
-19 -66 -43 -31 -23 -69 -48 -85 -55 -25 -11 -27 -15 -21 -50 4 -28 2 -41 -10
-51 -11 -9 -13 -18 -6 -30 5 -9 5 -23 1 -29 -9 -14 -70 -34 -82 -26 -4 2 3 28
16 57 43 91 40 92 -100 26 -45 -21 -90 -39 -100 -39 -10 0 -50 -12 -89 -26
-39 -15 -91 -28 -116 -30 -189 -18 -185 -17 -182 -47 2 -18 -7 -40 -24 -63
-25 -32 -31 -35 -73 -32 -41 3 -46 5 -46 28 0 17 11 32 35 48 52 35 45 47 -25
45 -33 -1 -70 -2 -82 -2 -18 -1 -23 -7 -23 -28 0 -54 -65 -89 -124 -67 -29 11
-19 51 19 74 57 35 32 57 -67 59 -44 1 -47 -1 -50 -26 -2 -18 -14 -33 -35 -46
-28 -16 -37 -17 -72 -6 -72 21 -63 59 20 80 51 13 61 24 32 33 -100 29 -101
28 -165 -4 -65 -33 -96 -34 -130 -3 -28 25 -21 43 22 60 46 18 49 27 17 48
-42 27 -88 39 -97 25 -13 -21 -101 -30 -132 -14 -45 23 -30 64 24 64 15 0 28
2 28 5 0 2 -54 58 -120 125 -111 112 -121 119 -150 114 -56 -12 -164 56 -135
84 4 4 34 -8 67 -26 33 -18 63 -31 65 -28 7 7 -13 40 -55 90 -20 25 -47 58
-59 73 -16 20 -25 24 -30 16 -5 -6 -20 -16 -35 -22 -22 -8 -31 -6 -52 10 -37
29 -50 57 -35 75 17 21 48 17 86 -12 46 -35 45 -8 -3 57 -27 38 -45 51 -77 60
-23 6 -49 14 -57 18 -21 10 -50 70 -43 88 8 21 51 8 87 -25 l28 -27 -7 35 c-4
19 -15 54 -25 78 -14 32 -24 42 -42 42 -54 0 -117 65 -102 105 8 20 20 19 61
-6 44 -27 55 -17 42 40 -6 29 -6 48 0 54 11 11 3 173 -10 199 -5 9 -29 26 -53
38 -56 27 -82 64 -70 99 13 37 44 33 71 -9 54 -81 57 -84 68 -49 13 40 18 7
21 -135 3 -139 4 -146 33 -198 16 -29 39 -86 51 -126 23 -79 88 -220 148 -319
121 -202 235 -325 398 -429 29 -19 56 -39 60 -45 3 -6 27 -20 53 -31 25 -11
52 -25 59 -31 24 -19 226 -98 302 -117 142 -36 425 -47 555 -20 150 30 200 42
226 55 15 8 36 15 47 15 10 0 38 13 63 28 24 16 58 32 74 36 26 7 169 94 230
141 92 70 153 127 214 199 39 47 71 88 71 91 0 4 18 28 40 53 22 25 49 64 60
86 11 23 23 48 28 56 25 43 36 70 62 154 61 199 70 258 71 458 0 103 -2 192
-5 197 -4 5 -11 44 -16 86 -10 81 -53 236 -75 271 -7 11 -19 41 -25 65 -18 66
-55 141 -80 164 -13 11 -41 45 -63 75 -50 69 -92 114 -208 224 -106 101 -281
203 -478 281 -134 52 -291 69 -563 61 l-208 -6 -67 -35 c-37 -19 -74 -35 -83
-35 -8 0 -32 -9 -53 -20 -20 -11 -42 -20 -49 -20 -6 0 -52 -24 -102 -53 -50
-28 -104 -59 -120 -67 -16 -8 -48 -33 -71 -55 -23 -22 -64 -58 -90 -80 -54
-45 -84 -74 -165 -161 -79 -85 -131 -127 -143 -115 -6 6 -1 18 17 33 14 13 29
39 32 58 l7 35 -32 -30 c-25 -24 -35 -27 -49 -19 -37 23 -12 123 35 141 21 8
43 -22 43 -59 0 -25 2 -27 19 -19 11 6 33 33 50 61 l31 50 -24 9 c-30 12 -38
42 -19 78 40 80 93 64 73 -22 -4 -19 -4 -35 0 -35 4 0 28 19 52 43 73 69 118
105 208 163 93 60 276 154 302 154 8 0 32 7 52 15 20 9 73 20 118 26 44 5 91
17 104 25 13 9 51 18 84 21 l61 6 -21 22 c-26 27 -25 39 2 65 22 20 46 24 86
14z m-210 -42 c2 -7 -12 -28 -32 -48 -62 -62 -128 -28 -75 40 18 23 28 27 62
24 22 -2 42 -9 45 -16z m-232 -53 c3 -6 -2 -23 -13 -37 -24 -32 -85 -39 -91
-10 -8 39 83 80 104 47z m1154 -42 c40 -20 30 -38 -29 -54 -58 -14 -121 -4
-121 20 0 37 100 59 150 34z m-635 -113 c9 -9 14 -21 12 -28 -5 -17 -50 -19
-72 -3 -16 13 -17 17 -6 31 17 20 45 20 66 0z m-106 -3 c12 -8 12 -12 2 -25
-11 -13 -34 -16 -107 -16 -70 0 -107 -5 -146 -20 -29 -11 -60 -20 -69 -20 -9
0 -28 -9 -42 -20 -14 -11 -39 -20 -55 -20 -16 0 -35 -7 -42 -15 -7 -8 -21 -15
-32 -15 -11 0 -38 -18 -60 -40 -28 -27 -49 -40 -68 -40 -16 0 -41 -12 -61 -30
-19 -16 -37 -30 -41 -30 -5 0 -32 -22 -60 -49 -29 -27 -72 -64 -96 -81 -24
-17 -50 -46 -57 -64 -14 -32 -41 -53 -54 -41 -9 10 41 96 66 112 12 8 32 30
44 49 12 19 38 42 62 53 23 10 55 32 71 50 17 17 35 31 41 31 7 0 24 10 38 23
58 49 85 64 147 82 36 10 72 24 80 31 52 42 145 70 260 80 47 3 92 10 100 15
20 11 61 11 79 0z m301 -26 c18 -21 -29 -30 -77 -14 l-38 13 30 7 c50 11 72
10 85 -6z m138 -27 c18 -18 14 -28 -12 -28 -25 0 -51 22 -39 33 10 11 38 8 51
-5z m149 -48 c21 -11 44 -20 51 -20 35 0 226 -123 268 -173 14 -17 44 -42 67
-57 61 -38 213 -225 263 -323 107 -207 131 -282 89 -282 -15 0 -26 18 -51 85
-48 128 -119 247 -214 360 -11 14 -44 54 -72 88 -44 55 -77 83 -147 127 -9 5
-39 27 -67 47 -28 21 -66 43 -85 49 -19 7 -41 18 -49 25 -9 7 -41 25 -73 39
-56 26 -76 55 -37 55 11 0 37 -9 57 -20z m-1467 -30 c0 -12 -28 -25 -36 -17
-9 9 6 27 22 27 8 0 14 -5 14 -10z m2011 -19 c22 -18 23 -21 8 -36 -14 -15
-18 -14 -39 3 -15 12 -21 25 -17 35 8 22 19 21 48 -2z m-1033 -31 c10 -18 12
-56 9 -143 -5 -107 -3 -121 14 -138 12 -12 33 -19 55 -19 38 0 172 -37 189
-51 5 -5 16 -9 23 -9 8 0 38 -15 66 -34 28 -18 62 -37 75 -41 14 -4 32 -17 42
-28 27 -34 83 -10 138 59 70 87 104 108 169 105 19 -1 22 -6 22 -45 0 -42 -3
-46 -95 -133 -52 -49 -95 -96 -95 -104 0 -9 15 -33 33 -55 18 -21 54 -82 81
-134 27 -52 54 -102 61 -110 7 -8 16 -51 20 -95 4 -44 12 -86 17 -92 7 -9 48
-13 139 -13 120 0 130 -1 149 -22 12 -13 20 -33 18 -47 -5 -37 -62 -53 -186
-49 -114 3 -114 3 -133 -67 -6 -22 -17 -60 -25 -85 -8 -25 -14 -51 -14 -57 0
-25 -99 -219 -124 -242 -45 -42 -36 -71 47 -142 112 -96 136 -138 101 -173
-38 -38 -87 -15 -184 86 -74 77 -101 85 -154 44 -95 -72 -302 -156 -385 -156
-32 0 -60 -22 -62 -48 -1 -9 -2 -68 -3 -130 -1 -106 -3 -115 -24 -132 -32 -26
-66 -9 -87 42 -13 34 -14 52 -4 123 15 117 1 138 -105 155 -117 19 -206 56
-318 131 -70 48 -101 50 -137 8 -45 -53 -132 -134 -153 -141 -24 -9 -54 5 -69
33 -14 27 22 81 103 151 32 27 61 61 64 74 7 28 -15 81 -46 109 -11 10 -20 24
-20 30 0 7 -12 30 -27 51 -30 45 -93 235 -86 262 2 10 -4 29 -15 42 -18 22
-26 24 -136 26 -135 2 -166 14 -166 65 0 44 43 59 170 59 138 0 159 12 160 90
0 25 9 68 19 95 11 28 26 68 34 91 9 23 36 70 60 106 24 35 49 74 55 85 18 33
-3 78 -51 109 -52 33 -127 121 -127 148 0 28 39 66 68 66 27 0 112 -81 144
-136 30 -53 103 -57 169 -9 73 53 275 135 334 135 59 0 70 26 70 159 0 96 3
122 18 144 24 37 75 35 95 -3z m-1108 -384 c0 -17 -80 -136 -92 -136 -14 0 -9
27 7 40 8 7 15 20 15 29 0 25 38 81 55 81 8 0 15 -6 15 -14z m-283 -27 c19
-36 16 -76 -7 -99 -35 -35 -64 -21 -76 37 -4 23 0 37 21 62 31 36 44 36 62 0z
m172 -151 c-5 -18 -13 -42 -19 -53 -8 -18 -37 -98 -69 -190 -5 -16 -18 -68
-28 -114 -19 -89 -42 -138 -43 -91 0 48 21 153 35 174 8 11 15 32 15 46 0 54
76 243 102 253 7 3 14 6 15 6 1 1 -3 -14 -8 -31z m-281 -50 c5 -7 16 -32 22
-55 14 -45 4 -73 -26 -73 -19 0 -54 59 -54 91 0 41 35 64 58 37z m-54 -209
c30 -24 36 -78 11 -99 -33 -27 -88 58 -65 100 13 25 21 25 54 -1z m183 -251
c-3 -7 -5 -2 -5 12 0 14 2 19 5 13 2 -7 2 -19 0 -25z m-211 -173 c26 -17 48
-69 40 -90 -9 -24 -45 -17 -77 14 -56 57 -25 120 37 76z m309 -332 c23 -68 59
-150 87 -196 26 -44 48 -84 48 -88 0 -5 13 -23 28 -41 15 -18 40 -52 54 -74
28 -43 100 -115 178 -178 25 -20 57 -47 71 -60 14 -13 41 -31 60 -41 19 -10
47 -28 62 -41 16 -13 36 -24 45 -24 9 -1 42 -14 72 -30 30 -17 61 -30 69 -30
8 0 44 -9 80 -21 36 -11 91 -27 121 -36 90 -26 104 -33 92 -45 -8 -8 -26 -7
-69 5 -32 8 -89 21 -128 27 -45 7 -105 28 -170 60 -55 26 -114 53 -132 60 -18
7 -38 19 -44 27 -7 8 -31 24 -53 35 -64 33 -220 176 -298 275 -124 157 -268
476 -244 540 12 30 32 -5 71 -124z m2433 -158 c-15 -44 -38 -59 -38 -24 0 20
38 74 47 65 2 -2 -2 -20 -9 -41z m200 -138 c12 -29 22 -58 22 -65 0 -23 -32
-62 -51 -62 -39 0 -67 82 -44 126 8 16 15 36 15 46 0 35 37 6 58 -45z m-277
10 c-14 -15 -21 -17 -21 -8 0 21 33 56 38 41 3 -7 -5 -22 -17 -33z m-41 -46
c0 -22 -28 -70 -65 -110 -171 -184 -312 -299 -355 -288 -12 3 -21 -1 -25 -12
-9 -28 -105 -91 -141 -92 -19 -1 -47 -2 -63 -3 -16 0 -38 -9 -49 -19 -21 -19
-52 -20 -54 -2 -1 13 64 45 80 40 8 -3 25 4 39 15 14 11 35 20 47 20 12 0 37
11 56 25 19 14 40 25 46 25 7 0 40 16 73 35 32 19 66 35 73 35 8 0 25 15 38
33 13 17 36 41 50 51 39 30 180 174 180 185 0 11 51 68 63 70 4 0 7 -3 7 -8z
m33 -323 c3 -18 8 -41 12 -50 5 -12 -6 -30 -33 -60 -35 -37 -42 -40 -56 -29
-33 28 -12 135 31 160 30 17 40 12 46 -21z m-2173 -24 c49 -20 91 -71 66 -80
-22 -8 -107 14 -128 33 -18 16 -24 44 -11 56 10 11 29 8 73 -9z m1996 -154
c-2 -54 -5 -63 -31 -85 -45 -36 -65 -33 -65 10 0 40 23 91 53 118 35 30 44 22
43 -43z m-646 -34 c-25 -23 -143 -56 -201 -57 -101 0 -132 2 -142 8 -6 4 -25
7 -41 7 -53 2 -38 21 17 23 147 4 265 13 292 22 17 5 43 10 60 10 25 1 27 -1
15 -13z m216 -182 c9 -34 -28 -74 -68 -74 -33 0 -44 19 -29 48 30 57 86 72 97
26z m-261 -46 c30 -14 34 -53 6 -68 -24 -12 -81 -2 -81 15 0 12 37 65 45 65 2
0 16 -5 30 -12z"/>
<path d="M920 560 c0 -6 7 -10 15 -10 8 0 15 2 15 4 0 2 -7 6 -15 10 -8 3 -15
1 -15 -4z"/>
<path d="M1620 2508 c-14 -5 -47 -16 -73 -23 -57 -16 -184 -90 -197 -115 -13
-24 31 -89 88 -131 23 -17 42 -35 42 -39 0 -5 20 -21 43 -35 24 -14 49 -36 55
-50 17 -37 72 -31 119 14 20 19 21 23 8 53 -10 24 -10 38 -2 53 8 16 17 120
19 233 0 43 -49 63 -102 40z"/>
<path d="M1849 2504 c-15 -19 -14 -246 2 -276 6 -12 6 -25 -1 -39 -21 -38 -5
-66 48 -83 54 -18 78 -14 87 15 4 11 23 30 43 43 45 28 192 176 192 193 0 17
-63 66 -123 97 -45 22 -191 65 -223 66 -6 0 -17 -7 -25 -16z"/>
<path d="M2242 2190 c-37 -38 -96 -99 -131 -136 l-64 -66 23 -49 c13 -27 26
-49 29 -50 21 -2 163 -8 249 -10 94 -2 105 0 125 19 l21 22 -22 77 c-13 43
-35 102 -49 131 -28 55 -88 132 -104 132 -5 0 -39 -31 -77 -70z"/>
<path d="M1217 2238 c-21 -16 -107 -185 -107 -210 0 -11 -6 -31 -14 -46 -18
-35 -10 -79 18 -97 17 -11 47 -12 151 -6 72 5 146 8 165 7 27 -1 35 3 38 19 3
11 13 31 23 44 26 33 24 48 -11 66 -16 8 -36 28 -45 44 -20 39 -155 177 -181
185 -11 3 -28 0 -37 -6z"/>
<path d="M1716 1949 c-32 -25 -27 -38 6 -15 37 26 83 20 140 -20 l51 -36 -23
32 c-42 58 -125 77 -174 39z"/>
<path d="M1125 1750 c-49 -6 -55 -26 -25 -94 11 -26 20 -56 20 -67 0 -30 49
-141 79 -178 34 -41 64 -38 108 11 15 18 52 56 81 85 28 29 52 60 52 68 0 9
16 25 35 36 19 12 35 25 35 30 0 5 -11 32 -25 59 -26 51 -39 57 -80 41 -11 -5
-28 -4 -39 2 -21 10 -176 15 -241 7z"/>
<path d="M2093 1744 c-5 -11 -15 -38 -23 -61 -14 -45 -4 -73 26 -73 8 0 24
-17 38 -37 34 -55 152 -180 175 -186 15 -4 30 6 56 38 19 24 35 50 35 58 0 8
9 26 20 39 10 14 22 40 25 59 3 18 10 38 15 44 5 6 12 33 15 61 10 74 3 77
-157 71 -73 -3 -137 -6 -143 -7 -5 -1 -24 1 -42 5 -25 6 -33 3 -40 -11z"/>
<path d="M1887 1736 c-4 -10 -1 -13 9 -9 15 6 19 23 5 23 -5 0 -11 -7 -14 -14z"/>
<path d="M1844 1695 c-16 -12 -17 -14 -3 -15 9 0 19 7 23 15 7 19 5 19 -20 0z"/>
<path d="M1720 1675 c14 -16 56 -20 64 -6 6 9 -26 21 -58 21 -15 0 -16 -3 -6
-15z"/>
<path d="M1575 1511 c-8 -16 -23 -32 -32 -35 -10 -4 -57 -43 -105 -89 -102
-95 -110 -119 -55 -160 48 -36 153 -83 230 -104 l69 -18 25 29 c19 23 23 36
19 65 -3 20 -7 70 -8 111 -1 41 -7 84 -14 94 -11 16 -10 24 1 46 16 31 9 44
-35 74 -39 26 -77 21 -95 -13z"/>
<path d="M1881 1520 c-41 -19 -43 -22 -38 -53 3 -17 1 -85 -3 -150 -10 -135
-5 -184 20 -197 48 -26 333 92 345 143 7 25 -9 77 -23 77 -5 0 -36 27 -68 61
-32 33 -72 67 -87 75 -15 8 -32 26 -37 39 -12 31 -47 33 -109 5z"/>
</g>
</svg>
